<?xml version="1.0" encoding="UTF-8" standalone="no"?>
<!-- Created with Inkscape (http://www.inkscape.org/) -->

<svg
   width="210mm"
   height="297mm"
   viewBox="0 0 210 297"
   version="1.1"
   id="svg1"
   sodipodi:docname="Stars.svg"
   inkscape:version="1.4 (86a8ad7, 2024-10-11)"
   xmlns:inkscape="http://www.inkscape.org/namespaces/inkscape"
   xmlns:sodipodi="http://sodipodi.sourceforge.net/DTD/sodipodi-0.dtd"
   xmlns="http://www.w3.org/2000/svg"
   xmlns:svg="http://www.w3.org/2000/svg">
  <sodipodi:namedview
     id="namedview1"
     pagecolor="#ffffff"
     bordercolor="#eeeeee"
     borderopacity="1"
     inkscape:showpageshadow="0"
     inkscape:pageopacity="0"
     inkscape:pagecheckerboard="0"
     inkscape:deskcolor="#d1d1d1"
     inkscape:document-units="mm"
     showgrid="false"
     inkscape:zoom="0.45792179"
     inkscape:cx="358.13976"
     inkscape:cy="419.28558"
     inkscape:window-width="1920"
     inkscape:window-height="1009"
     inkscape:window-x="-8"
     inkscape:window-y="-8"
     inkscape:window-maximized="1"
     inkscape:current-layer="layer1" />
  <defs
     id="defs1" />
  <g
     inkscape:label="Calque 1"
     inkscape:groupmode="layer"
     id="layer1"
     pagecolor="#ffffff">
    <path
       id="path1"
       style="fill:#cb2377;stroke-width:7.66041;stroke-linecap:round;paint-order:fill markers stroke"
       inkscape:transform-center-x="-0.043710382"
       inkscape:transform-center-y="-2.4631341"
       d="M 75.298707,87.364461 59.925035,79.175916 44.463938,87.19817 47.500979,70.046541 35.093619,57.821178 52.344286,55.40943 60.137212,39.831484 67.761671,55.492572 84.985324,58.090236 72.446831,70.181069 Z" />
    <path
       id="path2"
       style="fill:#cb2377;stroke-width:7.66041;stroke-linecap:round;paint-order:fill markers stroke"
       inkscape:transform-center-x="-0.043710382"
       inkscape:transform-center-y="-2.4631341"
       d="m 151.64875,87.364461 -15.37367,-8.188545 -15.4611,8.022254 3.03704,-17.151629 -12.40736,-12.225363 17.25067,-2.411748 7.79293,-15.577946 7.62446,15.661088 17.22365,2.597664 -12.53849,12.090833 z" />
    <path
       id="path3"
       style="fill:#cb2377;stroke-width:7.66041;stroke-linecap:round;paint-order:fill markers stroke"
       inkscape:transform-center-x="-0.043710382"
       inkscape:transform-center-y="-2.4631341"
       d="m 75.298707,161.35578 -15.373672,-8.18855 -15.461097,8.02226 3.037041,-17.15163 -12.40736,-12.22536 17.250667,-2.41175 7.792926,-15.57795 7.624459,15.66109 17.223653,2.59766 -12.538493,12.09084 z" />
    <path
       id="path4"
       style="fill:#cb2377;stroke-width:7.66041;stroke-linecap:round;paint-order:fill markers stroke"
       inkscape:transform-center-x="-0.043710382"
       inkscape:transform-center-y="-2.4631341"
       d="m 151.64875,161.35578 -15.37367,-8.18855 -15.4611,8.02226 3.03704,-17.15163 -12.40736,-12.22537 17.25067,-2.41174 7.79293,-15.57795 7.62446,15.66109 17.22365,2.59766 -12.53849,12.09084 z" />
  </g>
</svg>
